<?xml version="1.0" encoding="UTF-8"?>
<svg enable-background="new 0 0 165 35" version="1.1" viewBox="0 0 165 35" xml:space="preserve" xmlns="http://www.w3.org/2000/svg">
<style type="text/css">
	.st0{fill-rule:evenodd;clip-rule:evenodd;fill:#FFFFFF;}
	.st1{fill-rule:evenodd;clip-rule:evenodd;fill:#ED2590;}
	.st2{fill-rule:evenodd;clip-rule:evenodd;}
</style>

	<polygon class="st0" points="129.4 15.3 152.9 1.5 163.7 19.2 140.2 33.6"/>
	
		<polygon class="st1" points="3.9 23 0.2 32.2 20.2 32.2 23.7 25 7.4 12.7 19.8 15.2 21 17.3 23.7 8.5 4.1 8.3 0.6 16.8 19.6 27.4 19.3 28.5 5.6 26.3"/>
		<polygon class="st1" points="22.3 32.2 29.4 16.9 39.1 32.2 34.8 32.2 29.4 25.8 27.8 27.6 29.9 30.2 28.6 32.2 26.7 30.1 25.4 32.2"/>
		<polygon class="st1" points="37.8 17.2 40.1 32.2 43.1 32.2 44.2 22.6 45.7 22.2 50.7 32.2 53.8 32.2 51.6 17.1 44.5 19 44.7 17.3"/>
		<polygon class="st1" points="55.2 32.2 62.3 16.9 72 32.2 67.7 32.2 62.3 25.8 60.8 27.6 62.8 30.2 61.5 32.2 59.6 30.1 58.3 32.2"/>
		<polygon class="st1" points="116.2 32.2 123.3 16.9 132.9 32.2 128.7 32.2 123.3 25.8 121.7 27.6 123.8 30.2 122.5 32.2 120.6 30.1 119.3 32.2"/>
		<polygon class="st1" points="70.9 17.4 77.7 17.1 76.2 28.5 81.3 27.5 80.1 17.4 86.9 17.2 84.7 32.2 72.9 32.2"/>
		<polygon class="st1" points="88 17.1 94.8 17.1 93.1 28.6 102.6 27.2 99.8 32.2 89.5 32.2"/>
		<polygon class="st1" points="102.7 17.1 109.5 17.1 107.8 28.6 117.3 27.2 114.5 32.2 104.2 32.2"/>
		<path class="st2" d="m136.4 18.9 1.4-0.9c0.5-0.3 0.8-0.6 0.9-0.9s0-0.6-0.2-0.9-0.4-0.5-0.7-0.5c-0.3-0.1-0.7 0.1-1.2 0.4l-1.5 0.9 1.3 1.9zm6.7-5.7 2.9-1.8 4.6 7.7-2.9 1.8-4.6-7.7zm8.9-0.3c0.3 0.6 0.7 0.9 1.1 1s0.8 0.1 1.2-0.2c0.4-0.2 0.6-0.5 0.7-1 0.1-0.4 0-0.9-0.4-1.5-0.3-0.6-0.7-0.9-1.2-1.1-0.4-0.1-0.8-0.1-1.2 0.1s-0.6 0.5-0.7 1c-0.1 0.6 0.1 1.1 0.5 1.7zm0.5-5.4 2.8-1.7 4.4 7.3 0.2 0.3c0.3 0.5 0.5 1 0.5 1.6 0.1 0.6 0 1.1-0.2 1.6s-0.5 0.9-0.9 1.4c-0.5 0.4-1 0.9-1.7 1.3-1.5 0.9-2.7 1.3-3.6 1.2s-1.5-0.6-2-1.3c-0.1-0.1-0.1-0.2-0.2-0.4l3.1-1.4c0.2 0.2 0.5 0.3 0.7 0.3 0.3 0 0.6-0.1 1-0.3 0.4-0.3 0.7-0.6 0.7-0.9 0.1-0.4-0.1-0.8-0.4-1.4l-0.7-1.2c-0.1 0.5-0.2 0.9-0.4 1.3-0.3 0.5-0.7 0.9-1.3 1.2-1 0.6-2.1 0.7-3.3 0.1-0.8-0.4-1.6-1.1-2.2-2.1-0.7-1.2-1-2.3-0.8-3.3s0.8-1.7 1.7-2.3c0.6-0.4 1.2-0.6 1.7-0.6s1.1 0.1 1.7 0.4l-0.8-1.1zm-11.2 2.8 2.9-1.8 1.2 2-2.9 1.8-1.2-2zm-10.7 6.4 6.1-3.7c1-0.6 2-0.8 2.8-0.7 0.9 0.2 1.5 0.6 2 1.4 0.4 0.6 0.5 1.3 0.4 2-0.1 0.5-0.3 0.9-0.7 1.4 0.9-0.3 1.6-0.3 2.2-0.1s1.1 0.7 1.5 1.4c0.3 0.5 0.5 1.1 0.5 1.7s-0.1 1.1-0.4 1.7c-0.2 0.3-0.5 0.7-1 1.1-0.7 0.5-1.1 0.9-1.4 1l-5.7 3.4-6.3-10.6zm8.3 6.3 1.7-1c0.6-0.3 0.9-0.7 1-1s0.1-0.7-0.1-1-0.5-0.5-0.8-0.5c-0.3-0.1-0.8 0.1-1.4 0.4l-1.7 1 1.3 2.1zm14.1-1.4c-0.2-0.2-0.3-0.3-0.5-0.4-0.2 0-0.3 0-0.5 0.1s-0.3 0.3-0.3 0.5c0 0.1 0 0.3 0.1 0.5l1.2-0.7zm1.5-0.1-2.3 1.4c0.1 0.2 0.3 0.3 0.4 0.3 0.2 0.1 0.4 0 0.6-0.1l0.3-0.3c0-0.1 0.1-0.2 0.1-0.3l1.2-0.6c0 0.4-0.1 0.7-0.2 1-0.2 0.3-0.5 0.6-0.9 0.8s-0.7 0.4-1 0.4-0.6 0-0.9-0.2-0.5-0.4-0.7-0.7c-0.3-0.5-0.4-0.9-0.2-1.4 0.1-0.5 0.5-0.9 1-1.2 0.4-0.3 0.8-0.4 1.1-0.4s0.6 0.1 0.9 0.2c0.3 0.2 0.5 0.5 0.8 0.8l-0.2 0.3zm-6.8 1.6 1.1-0.6 0.3 0.5c0-0.3 0-0.5 0.1-0.6s0.2-0.3 0.3-0.4c0.2-0.1 0.4-0.2 0.7-0.2l0.1 1c-0.2 0-0.3 0.1-0.4 0.1-0.2 0.1-0.2 0.2-0.2 0.4s0.1 0.6 0.4 1.1l0.6 1-1.2 0.7-1.8-3zm-1.6 3c0.2 0.3 0.3 0.4 0.5 0.5s0.4 0 0.5-0.1c0.2-0.1 0.3-0.2 0.3-0.4s0-0.4-0.2-0.7-0.3-0.4-0.5-0.5-0.4 0-0.5 0c-0.2 0.1-0.3 0.2-0.3 0.4 0 0.3 0 0.6 0.2 0.8zm-1.2 0.7c-0.3-0.5-0.3-0.9-0.2-1.4s0.5-0.9 1-1.2c0.6-0.4 1.2-0.5 1.7-0.3 0.4 0.1 0.7 0.4 1 0.8 0.3 0.5 0.4 0.9 0.2 1.4-0.1 0.5-0.5 0.9-1 1.2s-0.9 0.4-1.4 0.3c-0.6 0-1-0.3-1.3-0.8zm-2.3-2.2 0.7 1.1 0.6-0.4 0.5 0.8-0.6 0.4 0.6 1.1c0.1 0.1 0.1 0.2 0.2 0.2h0.3c0.1-0.1 0.2-0.1 0.3-0.3l0.6 0.7c-0.2 0.2-0.5 0.4-0.7 0.6-0.3 0.2-0.5 0.3-0.7 0.3s-0.3 0-0.5-0.2c-0.2-0.1-0.3-0.3-0.5-0.7l-0.6-1.1-0.4 0.3-0.5-0.8 0.4-0.3-0.3-0.5 0.6-1.2zm-3.7 6 1.2-0.8c0.1 0.2 0.3 0.3 0.4 0.4 0.2 0.1 0.5 0.1 0.7-0.1 0.2-0.1 0.3-0.2 0.3-0.4v-0.4c-0.1-0.1-0.2-0.2-0.3-0.2s-0.4 0-0.8 0.2c-0.6 0.2-1.1 0.3-1.5 0.2s-0.6-0.3-0.8-0.6c-0.1-0.2-0.2-0.4-0.2-0.7s0.1-0.5 0.3-0.8 0.5-0.5 0.9-0.8c0.5-0.3 1-0.5 1.4-0.4 0.4 0 0.7 0.2 1.1 0.6l-1.2 0.8c-0.1-0.2-0.3-0.3-0.4-0.3-0.2 0-0.3 0-0.5 0.1l-0.3 0.3v0.3c0 0.1 0.1 0.1 0.2 0.1s0.3 0 0.5-0.1c0.6-0.2 1.1-0.3 1.4-0.4 0.3 0 0.6 0 0.8 0.1s0.4 0.3 0.5 0.5c0.2 0.3 0.2 0.6 0.2 0.9s-0.1 0.6-0.3 0.9-0.5 0.5-0.9 0.8c-0.7 0.4-1.3 0.6-1.7 0.5-0.4 0-0.8-0.3-1-0.7zm13.5-25.1c-0.1-0.1-0.2-0.2-0.3-0.2s-0.2 0-0.3 0.1-0.2 0.2-0.2 0.3 0 0.2 0.1 0.3l0.7-0.5zm1-0.1-1.5 0.9c0.1 0.1 0.2 0.2 0.3 0.2h0.4c0.1 0 0.1-0.1 0.2-0.2 0 0 0-0.1 0.1-0.2l0.8-0.4c0 0.3 0 0.5-0.2 0.7-0.1 0.2-0.3 0.4-0.6 0.6s-0.5 0.2-0.7 0.3c-0.2 0-0.4 0-0.6-0.1s-0.4-0.3-0.5-0.5c-0.2-0.3-0.2-0.6-0.2-0.9 0.1-0.3 0.3-0.6 0.7-0.8 0.3-0.2 0.5-0.3 0.8-0.3 0.2 0 0.4 0 0.6 0.1 0 0 0.2 0.2 0.4 0.6zm-5.9 0.9 0.8-0.5 0.6 1c0-0.2 0.1-0.3 0.2-0.4l0.3-0.3c0.2-0.1 0.4-0.2 0.6-0.1s0.4 0.2 0.5 0.5l0.8 1.3-0.8 0.5-0.7-1.1-0.2-0.2h-0.2l-0.2 0.2c0 0.1 0 0.2 0.1 0.4l0.6 1-0.8 0.5-1.6-2.8zm-3 1.8 2.6-1.6 0.4 0.7-0.9 0.5 1.2 2.1-0.9 0.5-1.2-2.1-0.9 0.5-0.3-0.6zm-16 6.7 24.2-14.5 11.6 19.3-24.2 14.5-11.6-19.3z"/>
	

</svg>
